# xmcd
#
# Track frame offsets: 
#        183
#        18308
#        39308
#
# Disc length: 744 seconds
#
# Revision: 6
# Processed by: cddbd v1.5.2PL0 Copyright (c) Steve Scherf et al.
# Submitted via: ExactAudioCopy v0.95b4
#
DISCID=1702e603
DTITLE=Mario Jordan - Welch ein Tag
DYEAR=1992
DGENRE=Deutsch Pop
TTITLE0=Welch ein Tag (Radio Version)
TTITLE1=Welch ein Tag (Extended Version)
TTITLE2=A Lovely Day
EXTD=YEAR: 1992
EXTT0=
EXTT1=
EXTT2=
PLAYORDER=
